<?xml version="1.0" encoding="UTF-8" standalone="no"?><!DOCTYPE svg PUBLIC "-//W3C//DTD SVG 1.1//EN" "http://www.w3.org/Graphics/SVG/1.1/DTD/svg11.dtd"><svg width="100%" height="100%" viewBox="0 0 1392 1392" version="1.1" xmlns="http://www.w3.org/2000/svg" xmlns:xlink="http://www.w3.org/1999/xlink" xml:space="preserve" xmlns:serif="http://www.serif.com/" style="fill-rule:evenodd;clip-rule:evenodd;stroke-linejoin:round;stroke-miterlimit:2;"><g id="logo"><path d="M695.833,70.833c344.947,0 625,280.053 625,625c0,344.947 -280.053,625 -625,625c-344.947,0 -625,-280.053 -625,-625c0,-344.947 280.053,-625 625,-625Zm113.213,426.321c-21.321,-32.521 -51.304,-57.362 -93.646,-62.85c-46.267,-6.004 -92.154,13.942 -119.287,51.875l-27.796,38.767l234.496,402.362c23.958,34.167 73.991,35.938 101.354,10.159c5.937,-4.967 17.637,-17.709 21.716,-25.209l61.546,-111.912l-178.383,-303.192Zm-408.004,-78.492c46.65,-1.337 90.241,23.213 113.366,63.75l175.938,303.788l-89.65,123.542c-19.046,24.391 -46.617,41.733 -73.458,36.77c-22.238,-3.041 -39.667,-10.454 -55.38,-34.983l-176.683,-302.692c-48.421,-83.004 9.792,-187.57 105.867,-190.175Zm600.104,356.859l94.217,-171.563c46.2,-84.341 -14.825,-187.291 -110.988,-187.291c-46.7,-0 -89.55,25.712 -111.579,66.858l-18.909,35.279l147.259,256.717Z" style="fill:#1b1d20;"/></g></svg>